<svg version="1.1" id="Layer_1" xmlns="http://www.w3.org/2000/svg" xmlns:xlink="http://www.w3.org/1999/xlink" x="0px" y="0px"
	 width="33px" height="18px" viewBox="0 0 33 18" enable-background="new 0 0 33 18" xml:space="preserve">
<g>
	<g>
		<g transform="translate(-256 -558) translate(50 532)">
			<g>
				<path fill="#666666" d="M230.24,26c1.71,0,3.416,0.723,4.746,1.381l1.273-1.033h1.129v5.25h-1.104
					c-1.368-2.201-2.447-3.974-6.215-3.974c-2.84,0-3.771,1.266-3.771,2.181c0,1.74,2.655,2.374,6.192,2.86
					c4.258,0.6,6.509,2.989,6.509,5.478c0,3.103-2.454,5.707-7.245,5.707c-2.053,0-5.105-0.193-7.204-3c0,1.047-1.028,3-3.344,3
					c-1.101,0-2.395-0.149-3.35-1.418c-0.287-0.474-0.545-0.998-0.781-1.548c-2.469,2.386-3.58,2.966-6.049,2.966
					c-3.202,0-5.028-1.633-5.028-4.246c0-3.59,3.55-5.268,10.943-6.581V31.04c0-1.832-0.768-3.472-3.035-3.472
					c-1.534,0-2.763,0.6-2.763,1.193c0,0.418,0.752,0.867,0.752,2.087c0,1.29-0.69,2.12-2.291,2.12c-1.668,0-2.525-1.08-2.525-2.508
					c-0.001-2.446,3.613-4.459,7.376-4.459c2.768,0,4.85,0.896,5.657,1.912c0.89,1.12,1.28,1.94,1.28,3.718v8.164
					c0.005,0.628,0.062,1.285,0.68,1.285c0.671,0,0.65-0.688,0.656-0.964v-2.58h1.604c1.066,2.569,3.704,4.92,7.307,4.735
					c4.256-0.221,4.202-2.269,3.959-3.112c-0.328-1.126-2.051-1.431-4.713-1.83c-5.21-0.771-7.687-2.88-7.687-5.682
					C223.2,28.758,225.486,26,230.24,26z M216.91,34.585c-4.14,0.65-5.892,1.871-5.892,4.403c0,1.484,0.87,2.425,2.251,2.425
					c2.034,0,3.641-1.296,3.641-4.729V34.585z"/>
			</g>
		</g>
	</g>
</g>
</svg>
